<?xml version="1.0" encoding="utf-8"?>
<!-- Generator: Adobe Illustrator 25.2.0, SVG Export Plug-In . SVG Version: 6.00 Build 0)  -->
<svg version="1.1" id="Layer_1" xmlns="http://www.w3.org/2000/svg" xmlns:xlink="http://www.w3.org/1999/xlink" x="0px" y="0px"
	 viewBox="0 0 1920 722" style="enable-background:new 0 0 1920 722;" xml:space="preserve">
<style type="text/css">
	.st0{fill:#FFFFFF;}
	.st1{clip-path:url(#SVGID_2_);fill:#FFFFFF;}
	.st2{clip-path:url(#SVGID_4_);fill:#FFFFFF;}
	.st3{fill:#C9F0F2;}
	.st4{fill:#F9F9F9;}
</style>
<g>
	<g>
		<path class="st0" d="M621.08,208.61c0,64.41-54.57,117.11-121.4,117.11h-68.15v95.43h-0.07v8.59h-70.5V221.63h70.57v35.87h68.15
			c28.26,0,50.83-22.09,50.83-48.89c0-27.29-22.58-49.38-50.83-49.38H152.08v-0.42h-21.47c-21.12,0-38.02,14.89-38.02,33.17
			c0,17.87,16.9,32.76,38.02,32.76h79.92c60.6,0,110.19,45.29,110.19,100.07v4.85c0,54.85-49.59,100.07-110.19,100.07H54.57v-67.39
			h155.96c20.71,0,38.02-14.89,38.02-32.69v-4.85c0-18.28-17.31-32.69-38.02-32.69h-79.92c-60.6,0-110.18-45.22-110.18-100.14
			c0-55.27,49.59-100.49,110.18-100.49h369.06C566.5,91.5,621.08,144.14,621.08,208.61z"/>
	</g>
	<g>
		<g>
			<defs>
				<path id="SVGID_1_" d="M1024.65,350.58c-8.51,40.2-32.08,61.68-78.72,67.13c-48.98,5.72-91.77-10.46-128.19-43.06
					c-25.28-22.63-49.81-46.1-74.68-69.18c-3-2.79-6.02-5.56-9.04-8.35c-29.58,35.39-33.97,79.39-12.54,121.62
					c-48.52-4.62-79.14-40.59-82.09-78.61c-2.54-32.6,6.02-62.62,24.16-93.09c0,0,6.45-12.13,16.36-27.07
					c26.74,3.36,51.61,13.57,74.97,27.87c34.78,21.28,68.31,44.54,103.02,65.91c9.72,5.99,21.39,10.82,32.6,11.94
					c20.22,1.99,33.72-13.61,29.47-33.45c-2.33-10.82-7.46-21.69-13.73-30.89c-12.01-17.62-25.23-34.45-38.87-50.86
					c-13.32-16.04-25.92-32.42-35.8-50.31c-6.57,14.18-16.27,28.74-24.34,39.79c-7.18,9.79-13.11,16.82-14.48,18.42
					c-0.09,0.11-0.18,0.23-0.3,0.34c-3.18,3.41-6.59,6.75-10.09,10.04c-1.51,1.4-5.67,1.4-7.87,0.41
					c-25.28-11.19-50.42-22.67-76.02-34.29c12.01-14.41,25.83-30.54,39.12-47.11c28.87-35.94,57.76-71.84,86.07-108.24
					c0.62-0.79,20.52-22.28,21.11-21.22c-0.12-0.59,2.8,4.22,2.8,4.22c4,6.3,17.35,40.39,35.61,67.33
					c13.22,19.5,28.87,37.38,43.95,55.55c29.99,36.15,58.61,73.23,80.51,114.96C1022.45,288.65,1031.46,318.3,1024.65,350.58z"/>
			</defs>
			<use xlink:href="#SVGID_1_"  style="overflow:visible;fill:#FFFFFF;"/>
			<clipPath id="SVGID_2_">
				<use xlink:href="#SVGID_1_"  style="overflow:visible;"/>
			</clipPath>
			<rect x="636.86" y="17.26" class="st1" width="2.1" height="406.16"/>
			<rect x="638.96" y="17.26" class="st1" width="3.06" height="406.16"/>
			<rect x="642.01" y="17.26" class="st1" width="3.06" height="406.16"/>
			<rect x="645.07" y="17.26" class="st1" width="3.06" height="406.16"/>
			<rect x="648.12" y="17.26" class="st1" width="3.06" height="406.16"/>
			<rect x="651.18" y="17.26" class="st1" width="3.06" height="406.16"/>
			<rect x="654.23" y="17.26" class="st1" width="3.06" height="406.16"/>
			<rect x="657.29" y="17.26" class="st1" width="3.06" height="406.16"/>
			<rect x="660.34" y="17.26" class="st1" width="3.06" height="406.16"/>
			<rect x="663.4" y="17.26" class="st1" width="3.06" height="406.16"/>
			<rect x="666.45" y="17.26" class="st1" width="3.06" height="406.16"/>
			<rect x="669.51" y="17.26" class="st1" width="3.06" height="406.16"/>
			<rect x="672.56" y="17.26" class="st1" width="3.06" height="406.16"/>
			<rect x="675.62" y="17.26" class="st1" width="3.06" height="406.16"/>
			<rect x="678.67" y="17.26" class="st1" width="3.06" height="406.16"/>
			<rect x="681.73" y="17.26" class="st1" width="3.06" height="406.16"/>
			<rect x="684.79" y="17.26" class="st1" width="3.06" height="406.16"/>
			<rect x="687.84" y="17.26" class="st1" width="3.06" height="406.16"/>
			<rect x="690.9" y="17.26" class="st1" width="3.06" height="406.16"/>
			<rect x="693.95" y="17.26" class="st1" width="3.06" height="406.16"/>
			<rect x="697.01" y="17.26" class="st1" width="3.06" height="406.16"/>
			<rect x="700.06" y="17.26" class="st1" width="3.06" height="406.16"/>
			<rect x="703.12" y="17.26" class="st1" width="3.06" height="406.16"/>
			<rect x="706.17" y="17.26" class="st1" width="3.06" height="406.16"/>
			<rect x="709.23" y="17.26" class="st1" width="3.06" height="406.16"/>
			<rect x="712.28" y="17.26" class="st1" width="3.06" height="406.16"/>
			<rect x="715.34" y="17.26" class="st1" width="3.06" height="406.16"/>
			<rect x="718.39" y="17.26" class="st1" width="3.06" height="406.16"/>
			<rect x="721.45" y="17.26" class="st1" width="3.06" height="406.16"/>
			<rect x="724.5" y="17.26" class="st1" width="3.06" height="406.16"/>
			<rect x="727.56" y="17.26" class="st1" width="3.06" height="406.16"/>
			<rect x="730.61" y="17.26" class="st1" width="3.06" height="406.16"/>
			<rect x="733.67" y="17.26" class="st1" width="3.06" height="406.16"/>
			<rect x="736.72" y="17.26" class="st1" width="3.06" height="406.16"/>
			<rect x="739.78" y="17.26" class="st1" width="3.06" height="406.16"/>
			<rect x="742.83" y="17.26" class="st1" width="3.06" height="406.16"/>
			<rect x="745.89" y="17.26" class="st1" width="3.06" height="406.16"/>
			<rect x="748.94" y="17.26" class="st1" width="3.06" height="406.16"/>
			<rect x="752" y="17.26" class="st1" width="3.06" height="406.16"/>
			<rect x="755.05" y="17.26" class="st1" width="3.06" height="406.16"/>
			<rect x="758.11" y="17.26" class="st1" width="3.06" height="406.16"/>
			<rect x="761.16" y="17.26" class="st1" width="3.06" height="406.16"/>
			<rect x="764.22" y="17.26" class="st1" width="3.06" height="406.16"/>
			<rect x="767.27" y="17.26" class="st1" width="3.06" height="406.16"/>
			<rect x="770.33" y="17.26" class="st1" width="3.06" height="406.16"/>
			<rect x="773.38" y="17.26" class="st1" width="3.06" height="406.16"/>
			<rect x="776.44" y="17.26" class="st1" width="3.06" height="406.16"/>
			<rect x="779.49" y="17.26" class="st1" width="3.06" height="406.16"/>
			<rect x="782.55" y="17.26" class="st1" width="3.06" height="406.16"/>
			<rect x="785.6" y="17.26" class="st1" width="3.06" height="406.16"/>
			<rect x="788.66" y="17.26" class="st1" width="3.06" height="406.16"/>
			<rect x="791.71" y="17.26" class="st1" width="3.06" height="406.16"/>
			<rect x="794.77" y="17.26" class="st1" width="3.06" height="406.16"/>
			<rect x="797.83" y="17.26" class="st1" width="3.06" height="406.16"/>
			<rect x="800.88" y="17.26" class="st1" width="3.06" height="406.16"/>
			<rect x="803.94" y="17.26" class="st1" width="3.06" height="406.16"/>
			<rect x="806.99" y="17.26" class="st1" width="3.06" height="406.16"/>
			<rect x="810.05" y="17.26" class="st1" width="3.06" height="406.16"/>
			<rect x="813.1" y="17.26" class="st1" width="3.06" height="406.16"/>
			<rect x="816.16" y="17.26" class="st1" width="3.06" height="406.16"/>
			<rect x="819.21" y="17.26" class="st1" width="3.06" height="406.16"/>
			<rect x="822.27" y="17.26" class="st1" width="3.06" height="406.16"/>
			<rect x="825.32" y="17.26" class="st1" width="3.06" height="406.16"/>
			<rect x="828.38" y="17.26" class="st1" width="3.06" height="406.16"/>
			<rect x="831.43" y="17.26" class="st1" width="3.06" height="406.16"/>
			<rect x="834.49" y="17.26" class="st1" width="3.06" height="406.16"/>
			<rect x="837.54" y="17.26" class="st1" width="3.06" height="406.16"/>
			<rect x="840.6" y="17.26" class="st1" width="3.06" height="406.16"/>
			<rect x="843.65" y="17.26" class="st1" width="3.06" height="406.16"/>
			<rect x="846.71" y="17.26" class="st1" width="3.06" height="406.16"/>
			<rect x="849.76" y="17.26" class="st1" width="3.06" height="406.16"/>
			<rect x="852.82" y="17.26" class="st1" width="3.06" height="406.16"/>
			<rect x="855.87" y="17.26" class="st1" width="3.06" height="406.16"/>
			<rect x="858.93" y="17.26" class="st1" width="3.06" height="406.16"/>
			<rect x="861.98" y="17.26" class="st1" width="3.06" height="406.16"/>
			<rect x="865.04" y="17.26" class="st1" width="3.06" height="406.16"/>
			<rect x="868.09" y="17.26" class="st1" width="3.06" height="406.16"/>
			<rect x="871.15" y="17.26" class="st1" width="3.06" height="406.16"/>
			<rect x="874.2" y="17.26" class="st1" width="3.06" height="406.16"/>
			<rect x="877.26" y="17.26" class="st1" width="3.06" height="406.16"/>
			<rect x="880.31" y="17.26" class="st1" width="3.06" height="406.16"/>
			<rect x="883.37" y="17.26" class="st1" width="3.06" height="406.16"/>
			<rect x="886.42" y="17.26" class="st1" width="3.06" height="406.16"/>
			<rect x="889.48" y="17.26" class="st1" width="3.06" height="406.16"/>
			<rect x="892.53" y="17.26" class="st1" width="3.06" height="406.16"/>
			<rect x="895.59" y="17.26" class="st1" width="3.06" height="406.16"/>
			<rect x="898.64" y="17.26" class="st1" width="3.06" height="406.16"/>
			<rect x="901.7" y="17.26" class="st1" width="3.06" height="406.16"/>
			<rect x="904.75" y="17.26" class="st1" width="3.06" height="406.16"/>
			<rect x="907.81" y="17.26" class="st1" width="3.06" height="406.16"/>
			<rect x="910.86" y="17.26" class="st1" width="3.06" height="406.16"/>
			<rect x="913.92" y="17.26" class="st1" width="3.06" height="406.16"/>
			<rect x="916.98" y="17.26" class="st1" width="3.06" height="406.16"/>
			<rect x="920.03" y="17.26" class="st1" width="3.06" height="406.16"/>
			<rect x="923.09" y="17.26" class="st1" width="3.06" height="406.16"/>
			<rect x="926.14" y="17.26" class="st1" width="3.06" height="406.16"/>
			<rect x="929.2" y="17.26" class="st1" width="3.06" height="406.16"/>
			<rect x="932.25" y="17.26" class="st1" width="3.06" height="406.16"/>
			<rect x="935.31" y="17.26" class="st1" width="3.06" height="406.16"/>
			<rect x="938.36" y="17.26" class="st1" width="3.06" height="406.16"/>
			<rect x="941.42" y="17.26" class="st1" width="3.06" height="406.16"/>
			<rect x="944.47" y="17.26" class="st1" width="3.06" height="406.16"/>
			<rect x="947.53" y="17.26" class="st1" width="3.06" height="406.16"/>
			<rect x="950.58" y="17.26" class="st1" width="3.06" height="406.16"/>
			<rect x="953.64" y="17.26" class="st1" width="3.06" height="406.16"/>
			<rect x="956.69" y="17.26" class="st1" width="3.06" height="406.16"/>
			<rect x="959.75" y="17.26" class="st1" width="3.06" height="406.16"/>
			<rect x="962.8" y="17.26" class="st1" width="3.06" height="406.16"/>
			<rect x="965.86" y="17.26" class="st1" width="3.06" height="406.16"/>
			<rect x="968.91" y="17.26" class="st1" width="3.06" height="406.16"/>
			<rect x="971.97" y="17.26" class="st1" width="3.06" height="406.16"/>
			<rect x="975.02" y="17.26" class="st1" width="3.06" height="406.16"/>
			<rect x="978.08" y="17.26" class="st1" width="3.06" height="406.16"/>
			<rect x="981.13" y="17.26" class="st1" width="3.06" height="406.16"/>
			<rect x="984.19" y="17.26" class="st1" width="3.06" height="406.16"/>
			<rect x="987.24" y="17.26" class="st1" width="3.06" height="406.16"/>
			<rect x="990.3" y="17.26" class="st1" width="3.06" height="406.16"/>
			<rect x="993.35" y="17.26" class="st1" width="3.06" height="406.16"/>
			<rect x="996.41" y="17.26" class="st1" width="3.06" height="406.16"/>
			<rect x="999.46" y="17.26" class="st1" width="3.06" height="406.16"/>
			<rect x="1002.52" y="17.26" class="st1" width="3.06" height="406.16"/>
			<rect x="1005.57" y="17.26" class="st1" width="3.06" height="406.16"/>
			<rect x="1008.63" y="17.26" class="st1" width="3.06" height="406.16"/>
			<rect x="1011.68" y="17.26" class="st1" width="3.06" height="406.16"/>
			<rect x="1014.74" y="17.26" class="st1" width="3.06" height="406.16"/>
			<rect x="1017.79" y="17.26" class="st1" width="3.06" height="406.16"/>
			<rect x="1020.85" y="17.26" class="st1" width="3.06" height="406.16"/>
			<rect x="1023.9" y="17.26" class="st1" width="3.06" height="406.16"/>
			<rect x="1026.96" y="17.26" class="st1" width="4.5" height="406.16"/>
		</g>
	</g>
	<g>
		<g>
			<defs>
				<path id="SVGID_3_" d="M807.23,199.97c-4.14,6.59-9.17,12.79-14.78,18.76C792.45,218.73,799.02,211.16,807.23,199.97z"/>
			</defs>
			<use xlink:href="#SVGID_3_"  style="overflow:visible;fill:#FFFFFF;"/>
			<clipPath id="SVGID_4_">
				<use xlink:href="#SVGID_3_"  style="overflow:visible;"/>
			</clipPath>
			<path class="st2" d="M792.45,199.97v18.76V199.97z"/>
			<rect x="792.45" y="199.97" class="st2" width="0.19" height="18.76"/>
			<rect x="792.65" y="199.97" class="st2" width="0.19" height="18.76"/>
			<rect x="792.84" y="199.97" class="st2" width="0.19" height="18.76"/>
			<rect x="793.04" y="199.97" class="st2" width="0.19" height="18.76"/>
			<rect x="793.23" y="199.97" class="st2" width="0.19" height="18.76"/>
			<rect x="793.43" y="199.97" class="st2" width="0.19" height="18.76"/>
			<rect x="793.62" y="199.97" class="st2" width="0.19" height="18.76"/>
			<rect x="793.81" y="199.97" class="st2" width="0.19" height="18.76"/>
			<rect x="794.01" y="199.97" class="st2" width="0.19" height="18.76"/>
			<rect x="794.2" y="199.97" class="st2" width="0.19" height="18.76"/>
			<rect x="794.4" y="199.97" class="st2" width="0.19" height="18.76"/>
			<rect x="794.59" y="199.97" class="st2" width="0.19" height="18.76"/>
			<rect x="794.79" y="199.97" class="st2" width="0.19" height="18.76"/>
			<rect x="794.98" y="199.97" class="st2" width="0.19" height="18.76"/>
			<rect x="795.18" y="199.97" class="st2" width="0.19" height="18.76"/>
			<rect x="795.37" y="199.97" class="st2" width="0.19" height="18.76"/>
			<rect x="795.56" y="199.97" class="st2" width="0.19" height="18.76"/>
			<rect x="795.76" y="199.97" class="st2" width="0.19" height="18.76"/>
			<rect x="795.95" y="199.97" class="st2" width="0.19" height="18.76"/>
			<rect x="796.15" y="199.97" class="st2" width="0.19" height="18.76"/>
			<rect x="796.34" y="199.97" class="st2" width="0.19" height="18.76"/>
			<rect x="796.54" y="199.97" class="st2" width="0.19" height="18.76"/>
			<rect x="796.73" y="199.97" class="st2" width="0.19" height="18.76"/>
			<rect x="796.93" y="199.97" class="st2" width="0.19" height="18.76"/>
			<rect x="797.12" y="199.97" class="st2" width="0.19" height="18.76"/>
			<rect x="797.31" y="199.97" class="st2" width="0.19" height="18.76"/>
			<rect x="797.51" y="199.97" class="st2" width="0.19" height="18.76"/>
			<rect x="797.7" y="199.97" class="st2" width="0.19" height="18.76"/>
			<rect x="797.9" y="199.97" class="st2" width="0.19" height="18.76"/>
			<rect x="798.09" y="199.97" class="st2" width="0.19" height="18.76"/>
			<rect x="798.29" y="199.97" class="st2" width="0.19" height="18.76"/>
			<rect x="798.48" y="199.97" class="st2" width="0.19" height="18.76"/>
			<rect x="798.68" y="199.97" class="st2" width="0.19" height="18.76"/>
			<rect x="798.87" y="199.97" class="st2" width="0.19" height="18.76"/>
			<rect x="799.06" y="199.97" class="st2" width="0.19" height="18.76"/>
			<rect x="799.26" y="199.97" class="st2" width="0.19" height="18.76"/>
			<rect x="799.45" y="199.97" class="st2" width="0.19" height="18.76"/>
			<rect x="799.65" y="199.97" class="st2" width="0.19" height="18.76"/>
			<rect x="799.84" y="199.97" class="st2" width="0.19" height="18.76"/>
			<rect x="800.04" y="199.97" class="st2" width="0.19" height="18.76"/>
			<rect x="800.23" y="199.97" class="st2" width="0.19" height="18.76"/>
			<rect x="800.43" y="199.97" class="st2" width="0.19" height="18.76"/>
			<rect x="800.62" y="199.97" class="st2" width="0.19" height="18.76"/>
			<rect x="800.81" y="199.97" class="st2" width="0.19" height="18.76"/>
			<rect x="801.01" y="199.97" class="st2" width="0.19" height="18.76"/>
			<rect x="801.2" y="199.97" class="st2" width="0.19" height="18.76"/>
			<rect x="801.4" y="199.97" class="st2" width="0.19" height="18.76"/>
			<rect x="801.59" y="199.97" class="st2" width="0.19" height="18.76"/>
			<rect x="801.79" y="199.97" class="st2" width="0.19" height="18.76"/>
			<rect x="801.98" y="199.97" class="st2" width="0.19" height="18.76"/>
			<rect x="802.18" y="199.97" class="st2" width="0.19" height="18.76"/>
			<rect x="802.37" y="199.97" class="st2" width="0.19" height="18.76"/>
			<rect x="802.57" y="199.97" class="st2" width="0.19" height="18.76"/>
			<rect x="802.76" y="199.97" class="st2" width="0.19" height="18.76"/>
			<rect x="802.95" y="199.97" class="st2" width="0.19" height="18.76"/>
			<rect x="803.15" y="199.97" class="st2" width="0.19" height="18.76"/>
			<rect x="803.34" y="199.97" class="st2" width="0.19" height="18.76"/>
			<rect x="803.54" y="199.97" class="st2" width="0.19" height="18.76"/>
			<rect x="803.73" y="199.97" class="st2" width="0.19" height="18.76"/>
			<rect x="803.93" y="199.97" class="st2" width="0.19" height="18.76"/>
			<rect x="804.12" y="199.97" class="st2" width="0.19" height="18.76"/>
			<rect x="804.32" y="199.97" class="st2" width="0.19" height="18.76"/>
			<rect x="804.51" y="199.97" class="st2" width="0.19" height="18.76"/>
			<rect x="804.7" y="199.97" class="st2" width="0.19" height="18.76"/>
			<rect x="804.9" y="199.97" class="st2" width="0.19" height="18.76"/>
			<rect x="805.09" y="199.97" class="st2" width="0.19" height="18.76"/>
			<rect x="805.29" y="199.97" class="st2" width="0.19" height="18.76"/>
			<rect x="805.48" y="199.97" class="st2" width="0.19" height="18.76"/>
			<rect x="805.68" y="199.97" class="st2" width="0.19" height="18.76"/>
			<rect x="805.87" y="199.97" class="st2" width="0.19" height="18.76"/>
			<rect x="806.07" y="199.97" class="st2" width="0.19" height="18.76"/>
			<rect x="806.26" y="199.97" class="st2" width="0.19" height="18.76"/>
			<rect x="806.45" y="199.97" class="st2" width="0.19" height="18.76"/>
			<rect x="806.65" y="199.97" class="st2" width="0.19" height="18.76"/>
			<rect x="806.84" y="199.97" class="st2" width="0.19" height="18.76"/>
			<rect x="807.04" y="199.97" class="st2" width="0.19" height="18.76"/>
			<path class="st2" d="M807.23,218.73v-18.76V218.73z"/>
		</g>
	</g>
	<g>
		<path class="st0" d="M749.21,508.19c39.59-16.78,72.81-38.95,82.09-85.64c9.28,46.28,42.27,68.74,82.12,85.64
			C858.69,508.19,803.95,508.19,749.21,508.19z"/>
	</g>
	<g>
		<g>
			<path class="st3" d="M1290.93,340.43v4.02h-0.14C1290.93,343.13,1290.93,341.74,1290.93,340.43z"/>
		</g>
		<g>
			<path class="st3" d="M1170.96,213.98c-59.51,0-107.92,48.38-107.92,107.85c0,59.5,48.41,107.91,107.92,107.91
				c58.11,0,105.42-45.49,107.67-103.15c0.16-1.56,0.17-3.2,0.17-4.76V213.98H1170.96z M1224.95,321.83c0,1.23-0.07,2.53-0.13,3.68
				c-1.91,28.21-25.57,50.3-53.86,50.3c-29.81,0-54.06-24.22-54.06-53.99c0-29.77,24.25-53.99,54.06-53.99
				C1200.73,267.84,1224.95,292.06,1224.95,321.83z"/>
		</g>
		<g>
			<rect x="1205.79" y="91.18" class="st3" width="69.81" height="71.26"/>
		</g>
		<g>
			<rect x="1336.5" y="91.18" class="st3" width="290.29" height="71.26"/>
		</g>
		<g>
			<rect x="1336.47" y="215.9" class="st3" width="118.19" height="68.82"/>
		</g>
		<g>
			<polygon class="st3" points="1552.22,359.82 1552.22,428.64 1336.47,428.64 1336.47,359.82 1339.2,359.82 			"/>
		</g>
		<g>
			<path class="st3" d="M1899.57,429.71h-75.66l-23.28-76.14l-30.55-100.39h-0.49l-14.55-48.5l-18.91,59.17l-34.44,109.61h0.49
				l-17.46,56.26h-76.14l44.13-139.19l63.53-199.33h77.6L1899.57,429.71z"/>
		</g>
	</g>
	<g>
		<path class="st4" d="M89.45,701.7v-80.57h16.7c12.05,0,20.8,0.97,26.24,2.9c7.81,2.74,13.92,7.49,18.32,14.24
			c4.4,6.76,6.6,14.81,6.6,24.16c0,8.06-1.74,15.17-5.23,21.3c-3.49,6.13-8.02,10.66-13.58,13.58c-5.57,2.93-13.38,4.38-23.42,4.38
			H89.45z M97.17,694.08h9.31c11.14,0,18.86-0.69,23.17-2.08c6.06-1.97,10.83-5.52,14.3-10.64c3.47-5.13,5.2-11.39,5.2-18.81
			c0-7.77-1.88-14.41-5.64-19.92c-3.76-5.51-9-9.28-15.72-11.33c-5.04-1.53-13.35-2.3-24.92-2.3h-5.7V694.08z"/>
		<path class="st4" d="M396.13,621.12h8.05v80.57h-8.05V621.12z"/>
		<path class="st4" d="M724.72,634.65l-6.24,5.91c-4.49-4.42-9.41-7.76-14.76-10.04c-5.35-2.29-10.56-3.43-15.64-3.43
			c-6.32,0-12.33,1.56-18.05,4.66c-5.71,3.1-10.14,7.31-13.28,12.62c-3.14,5.31-4.71,10.92-4.71,16.84c0,6.06,1.62,11.82,4.87,17.28
			s7.74,9.75,13.47,12.87c5.73,3.13,12.01,4.68,18.84,4.68c8.29,0,15.3-2.34,21.04-7.01c5.73-4.67,9.13-10.74,10.19-18.18h-25.69
			v-7.78h34.73c-0.07,12.46-3.77,22.34-11.09,29.67c-7.32,7.32-17.12,10.98-29.39,10.98c-14.9,0-26.69-5.07-35.38-15.23
			c-6.68-7.81-10.02-16.85-10.02-27.11c0-7.63,1.92-14.73,5.75-21.3c3.83-6.57,9.09-11.71,15.77-15.42
			c6.68-3.71,14.24-5.57,22.68-5.57c6.83,0,13.26,1.23,19.28,3.7C713.1,625.26,718.98,629.21,724.72,634.65z"/>
		<path class="st4" d="M968.02,621.12h8.05v80.57h-8.05V621.12z"/>
		<path class="st4" d="M1210.89,629.01v-7.89h44.15v7.89h-17.97v72.68h-8.22v-72.68H1210.89z"/>
		<path class="st4" d="M1523.91,621.12l37.58,80.57h-8.7l-12.67-26.51h-34.71l-12.55,26.51h-8.98l38.07-80.57H1523.91z
			 M1522.9,638.24l-13.8,29.17h27.55L1522.9,638.24z"/>
		<path class="st4" d="M1798.34,621.12h8.05v72.79h31v7.78h-39.05V621.12z"/>
	</g>
</g>
</svg>
