<?xml version="1.0" encoding="utf-8"?>
<!-- Generator: Adobe Illustrator 25.2.0, SVG Export Plug-In . SVG Version: 6.00 Build 0)  -->
<svg version="1.1" id="Layer_1" xmlns="http://www.w3.org/2000/svg" xmlns:xlink="http://www.w3.org/1999/xlink" x="0px" y="0px"
	 viewBox="0 0 1080 408.24" style="enable-background:new 0 0 1080 408.24;" xml:space="preserve">
<style type="text/css">
	.st0{display:none;fill:#FFFFFF;}
	.st1{fill:#30A5B2;}
	.st2{fill:url(#SVGID_1_);}
	.st3{fill:url(#SVGID_2_);}
	.st4{fill:#020101;}
	.st5{fill:#318C9B;}
</style>
<rect x="0" y="-337.08" class="st0" width="1080" height="1080"/>
<g>
	<g>
		<path class="st1" d="M351.44,119.34c0,35.83-30.36,65.15-67.54,65.15h-37.91v53.09h-0.04v4.78h-39.22V126.58h39.26v19.96h37.91
			c15.72,0,28.28-12.29,28.28-27.2c0-15.18-12.56-27.47-28.28-27.47H90.52v-0.23H78.58c-11.75,0-21.15,8.28-21.15,18.46
			c0,9.94,9.4,18.22,21.15,18.22h44.46c33.71,0,61.3,25.2,61.3,55.67v2.7c0,30.52-27.59,55.67-61.3,55.67H36.27v-37.49h86.77
			c11.52,0,21.15-8.28,21.15-18.19v-2.7c0-10.17-9.63-18.19-21.15-18.19H78.58c-33.71,0-61.3-25.16-61.3-55.71
			c0-30.75,27.59-55.91,61.3-55.91H283.9C321.08,54.19,351.44,83.47,351.44,119.34z"/>
		<linearGradient id="SVGID_1_" gradientUnits="userSpaceOnUse" x1="361.3927" y1="124.8744" x2="577.2522" y2="124.8744">
			<stop  offset="0" style="stop-color:#999999"/>
			<stop  offset="1" style="stop-color:#1A1A1A"/>
		</linearGradient>
		<path class="st2" d="M575.96,198.32c-4.73,22.36-17.84,34.31-43.8,37.34c-27.25,3.18-51.05-5.82-71.32-23.95
			c-14.06-12.59-27.71-25.65-41.54-38.49c-1.67-1.55-3.35-3.09-5.03-4.65c-16.46,19.69-18.9,44.17-6.97,67.66
			c-27-2.57-44.03-22.58-45.67-43.73c-1.41-18.14,3.35-34.84,13.44-51.79c0,0,3.59-6.75,9.1-15.06c14.88,1.87,28.71,7.55,41.71,15.5
			c19.35,11.84,38.01,24.78,57.31,36.67c5.41,3.33,11.9,6.02,18.14,6.64c11.25,1.11,18.76-7.57,16.39-18.61
			c-1.3-6.02-4.15-12.07-7.64-17.18c-6.68-9.8-14.04-19.17-21.63-28.29c-7.41-8.92-14.42-18.04-19.92-27.99
			c-3.65,7.89-9.05,15.99-13.54,22.13c-4,5.45-7.29,9.36-8.06,10.25c-0.05,0.06-0.1,0.13-0.17,0.19c-1.77,1.9-3.67,3.75-5.61,5.59
			c-0.84,0.78-3.16,0.78-4.38,0.23c-14.06-6.22-28.05-12.61-42.3-19.08c6.68-8.02,14.37-16.99,21.77-26.21
			c16.06-20,32.14-39.97,47.88-60.22c0.34-0.44,11.42-12.4,11.75-11.8c-0.07-0.33,1.56,2.35,1.56,2.35
			c2.22,3.5,9.65,22.47,19.81,37.46c7.35,10.85,16.06,20.8,24.45,30.9c16.69,20.11,32.61,40.74,44.79,63.96
			C574.74,163.87,579.76,180.36,575.96,198.32z"/>
		<linearGradient id="SVGID_2_" gradientUnits="userSpaceOnUse" x1="446.7874" y1="119.7521" x2="455.0097" y2="119.7521">
			<stop  offset="0" style="stop-color:#999999"/>
			<stop  offset="1" style="stop-color:#4D4D4D"/>
		</linearGradient>
		<path class="st3" d="M455.01,114.53c-2.3,3.67-5.1,7.12-8.22,10.44C446.79,124.97,450.44,120.76,455.01,114.53z"/>
		<path class="st4" d="M422.73,286.01c22.02-9.33,40.5-21.67,45.67-47.64c5.16,25.75,23.52,38.24,45.69,47.64
			C483.64,286.01,453.18,286.01,422.73,286.01z"/>
		<g>
			<path class="st5" d="M724.11,192.67v2.23h-0.08C724.11,194.18,724.11,193.41,724.11,192.67z"/>
			<path class="st5" d="M657.37,122.33c-33.11,0-60.04,26.92-60.04,60c0,33.1,26.93,60.04,60.04,60.04
				c32.33,0,58.65-25.31,59.9-57.39c0.09-0.87,0.1-1.78,0.1-2.65v-60H657.37z M687.4,182.33c0,0.69-0.04,1.41-0.07,2.05
				c-1.06,15.69-14.22,27.99-29.96,27.99c-16.58,0-30.07-13.47-30.07-30.03c0-16.56,13.49-30.04,30.07-30.04
				C673.93,152.29,687.4,165.76,687.4,182.33z"/>
			<rect x="676.74" y="54.01" class="st5" width="38.84" height="39.65"/>
			<rect x="749.46" y="54.01" class="st5" width="161.5" height="39.65"/>
			<rect x="749.45" y="123.39" class="st5" width="65.75" height="38.29"/>
			<polygon class="st5" points="869.47,203.46 869.47,241.75 749.45,241.75 749.45,203.46 750.97,203.46 			"/>
			<path class="st5" d="M1062.72,242.35h-42.09l-12.95-42.36l-17-55.85h-0.27l-8.09-26.98l-10.52,32.92l-19.16,60.98h0.27
				l-9.71,31.3h-42.36l24.55-77.44l35.34-110.89h43.17L1062.72,242.35z"/>
		</g>
	</g>
	<g>
		<path d="M55.68,393.66v-44.83h9.29c6.7,0,11.57,0.54,14.6,1.61c4.35,1.52,7.75,4.16,10.19,7.92c2.45,3.76,3.67,8.24,3.67,13.44
			c0,4.49-0.97,8.44-2.91,11.85c-1.94,3.41-4.46,5.93-7.56,7.56c-3.1,1.63-7.44,2.44-13.03,2.44H55.68z M59.98,389.43h5.18
			c6.2,0,10.49-0.39,12.89-1.16c3.37-1.1,6.02-3.07,7.95-5.92c1.93-2.85,2.89-6.34,2.89-10.46c0-4.32-1.05-8.02-3.14-11.08
			c-2.09-3.07-5.01-5.17-8.75-6.3c-2.8-0.85-7.43-1.28-13.86-1.28h-3.17V389.43z"/>
		<path d="M226.3,348.83h4.48v44.83h-4.48V348.83z"/>
		<path d="M409.11,356.36l-3.47,3.29c-2.5-2.46-5.24-4.32-8.21-5.59s-5.88-1.9-8.7-1.9c-3.51,0-6.86,0.86-10.04,2.59
			c-3.18,1.73-5.64,4.07-7.39,7.02c-1.75,2.96-2.62,6.08-2.62,9.37c0,3.37,0.9,6.58,2.71,9.61c1.81,3.04,4.31,5.42,7.5,7.16
			c3.19,1.74,6.68,2.61,10.48,2.61c4.61,0,8.51-1.3,11.7-3.9c3.19-2.6,5.08-5.97,5.67-10.12h-14.29v-4.33h19.32
			c-0.04,6.93-2.1,12.43-6.17,16.5c-4.07,4.07-9.52,6.11-16.35,6.11c-8.29,0-14.85-2.82-19.69-8.47c-3.72-4.35-5.58-9.38-5.58-15.08
			c0-4.25,1.07-8.2,3.2-11.85c2.13-3.66,5.06-6.52,8.78-8.58c3.72-2.06,7.92-3.09,12.62-3.09c3.8,0,7.37,0.69,10.73,2.06
			C402.65,351.14,405.92,353.33,409.11,356.36z"/>
		<path d="M544.46,348.83h4.48v44.83h-4.48V348.83z"/>
		<path d="M679.58,353.22v-4.39h24.56v4.39h-9.99v40.44h-4.57v-40.44H679.58z"/>
		<path d="M853.73,348.83l20.9,44.83h-4.84l-7.05-14.75h-19.31l-6.98,14.75h-5l21.18-44.83H853.73z M853.17,358.36l-7.68,16.23
			h15.32L853.17,358.36z"/>
		<path d="M1006.4,348.83h4.48v40.5h17.25v4.33h-21.73V348.83z"/>
	</g>
</g>
</svg>
